<svg width="15" height="15" viewBox="0 0 15 15" fill="none" xmlns="http://www.w3.org/2000/svg">
<path d="M6.88566 1.75878C6.91244 1.61541 6.98852 1.48592 7.10072 1.39273C7.21292 1.29955 7.35418 1.24854 7.50003 1.24854C7.64588 1.24854 7.78714 1.29955 7.89935 1.39273C8.01155 1.48592 8.08763 1.61541 8.11441 1.75878L8.77128 5.23253C8.81794 5.4795 8.93795 5.70667 9.11568 5.88439C9.2934 6.06211 9.52056 6.18213 9.76753 6.22878L13.2413 6.88566C13.3847 6.91244 13.5141 6.98852 13.6073 7.10072C13.7005 7.21292 13.7515 7.35418 13.7515 7.50003C13.7515 7.64588 13.7005 7.78714 13.6073 7.89935C13.5141 8.01155 13.3847 8.08763 13.2413 8.11441L9.76753 8.77128C9.52056 8.81794 9.2934 8.93795 9.11568 9.11568C8.93795 9.2934 8.81794 9.52056 8.77128 9.76753L8.11441 13.2413C8.08763 13.3847 8.01155 13.5141 7.89935 13.6073C7.78714 13.7005 7.64588 13.7515 7.50003 13.7515C7.35418 13.7515 7.21292 13.7005 7.10072 13.6073C6.98852 13.5141 6.91244 13.3847 6.88566 13.2413L6.22878 9.76753C6.18213 9.52056 6.06211 9.2934 5.88439 9.11568C5.70667 8.93795 5.4795 8.81794 5.23253 8.77128L1.75878 8.11441C1.61541 8.08763 1.48592 8.01155 1.39273 7.89935C1.29955 7.78714 1.24854 7.64588 1.24854 7.50003C1.24854 7.35418 1.29955 7.21292 1.39273 7.10072C1.48592 6.98852 1.61541 6.91244 1.75878 6.88566L5.23253 6.22878C5.4795 6.18213 5.70667 6.06211 5.88439 5.88439C6.06211 5.70667 6.18213 5.4795 6.22878 5.23253L6.88566 1.75878Z" stroke="white" stroke-width="0.9375" stroke-linecap="round" stroke-linejoin="round"/>
<path d="M12.5 1.25V3.75" stroke="white" stroke-width="0.9375" stroke-linecap="round" stroke-linejoin="round"/>
<path d="M13.75 2.5H11.25" stroke="white" stroke-width="0.9375" stroke-linecap="round" stroke-linejoin="round"/>
<path d="M2.5 13.75C3.19036 13.75 3.75 13.1904 3.75 12.5C3.75 11.8096 3.19036 11.25 2.5 11.25C1.80964 11.25 1.25 11.8096 1.25 12.5C1.25 13.1904 1.80964 13.75 2.5 13.75Z" stroke="white" stroke-width="0.9375" stroke-linecap="round" stroke-linejoin="round"/>
</svg>
